<?xml version="1.0" encoding="UTF-8"?>
<svg version="1.1" xmlns="http://www.w3.org/2000/svg" width="1500" height="1500">
<path d="M0 0 C495 0 990 0 1500 0 C1500 495 1500 990 1500 1500 C1005 1500 510 1500 0 1500 C0 1005 0 510 0 0 Z " fill="#FEFEFE" transform="translate(0,0)"/>
<path d="M0 0 C1.30515564 -0.025746 2.61031128 -0.051492 3.95501709 -0.07801819 C9.9385455 -0.16730657 15.9222497 -0.22810364 21.90625 -0.27441406 C25.06711751 -0.30115836 28.22647662 -0.34987559 31.38671875 -0.41796875 C35.20060231 -0.49994142 39.01304978 -0.5426001 42.82776642 -0.55747795 C44.28076486 -0.56972534 45.73371588 -0.59575918 47.18621063 -0.6359272 C58.5149106 -0.93348533 58.5149106 -0.93348533 61.82514954 1.85762024 C63.1628403 3.94038152 64.0524193 5.92172161 64.90722656 8.24047852 C65.745802 9.81309448 65.745802 9.81309448 66.60131836 11.41748047 C67.09801025 12.42770264 67.59470215 13.4379248 68.10644531 14.47875977 C68.67129639 15.62014404 69.23614746 16.76152832 69.81811523 17.9375 C70.25346085 18.82367508 70.25346085 18.82367508 70.69760132 19.72775269 C72.22651788 22.83837522 73.77001351 25.94174189 75.31347656 29.04516602 C75.77230476 29.96841927 75.77230476 29.96841927 76.24040222 30.9103241 C78.95859873 36.36829768 81.7507036 41.78466401 84.59472656 47.17797852 C84.99199951 47.93312744 85.38927246 48.68827637 85.79858398 49.46630859 C87.73656646 53.12309444 89.73440698 56.7156823 91.90722656 60.24047852 C100.81338019 49.97402636 100.81338019 49.97402636 109.29003906 39.35375977 C115.98044463 30.61098341 122.89171759 21.92521419 130.08370972 13.58750916 C131.99822075 11.26585683 131.99822075 11.26585683 133.3659668 8.45962524 C135.95006574 4.15928963 138.27333678 0.94438345 143.20508003 -0.37362099 C150.42452317 -1.34985673 157.71086894 -1.0188743 164.97363281 -0.83374023 C167.33727897 -0.81320629 169.70097217 -0.79755651 172.06468201 -0.78657532 C178.26537914 -0.74471229 184.46321063 -0.63678342 190.66278076 -0.51483154 C196.99712357 -0.402003 203.33193267 -0.35200161 209.66699219 -0.29663086 C222.08165802 -0.17890165 234.49420338 0.00866528 246.90722656 0.24047852 C254.27172335 27.49105331 254.27172335 27.49105331 257.46972656 39.99047852 C259.58644629 48.21951034 261.76523038 56.42662274 264.03222656 64.61547852 C265.97724206 71.64667454 267.75938363 78.69640851 269.40722656 85.80297852 C271.24966922 93.74656388 273.37690557 101.57072879 275.66577148 109.39648438 C278.16843872 118.00290144 280.3288923 126.68519243 282.42993164 135.3972168 C282.85303029 137.03117832 283.37348105 138.63924198 283.90722656 140.24047852 C290.59257366 128.76834211 296.8961388 117.09664697 303.19726562 105.41040039 C308.08675003 96.34628481 312.99706351 87.29340429 317.90722656 78.24047852 C318.43767578 77.26208008 318.968125 76.28368164 319.51464844 75.27563477 C329.42141077 57.01420996 329.42141077 57.01420996 334.21972656 48.74047852 C336.67193399 44.49165381 338.94513311 40.21226654 341.09472656 35.80297852 C346.2190849 25.36403045 352.08102941 15.3003656 357.90722656 5.24047852 C358.37649315 3.94453262 358.37649315 3.94453262 358.85523987 2.62240601 C360.90722656 0.24047852 360.90722656 0.24047852 362.90379524 -0.2111311 C365.66827304 -0.37902511 368.39257697 -0.37697536 371.16186523 -0.32714844 C372.74260078 -0.32824364 372.74260078 -0.32824364 374.35527039 -0.32936096 C377.8457652 -0.32587174 381.33493303 -0.28694535 384.82519531 -0.24780273 C387.24228689 -0.23847942 389.65938791 -0.23136104 392.07649231 -0.22636414 C398.44389856 -0.20725676 404.81073618 -0.15812269 411.17791748 -0.10284424 C417.67289537 -0.05173296 424.16796498 -0.0288674 430.66308594 -0.00366211 C443.41137567 0.04999154 456.1592709 0.1343917 468.90722656 0.24047852 C469.71909424 1.86802063 469.71909424 1.86802063 470.54736328 3.52844238 C471.26885652 4.97348188 471.99037477 6.41850889 472.71191406 7.86352539 C473.24498169 8.93240997 473.24498169 8.93240997 473.78881836 10.02288818 C476.7576037 15.96642371 479.81268017 21.86147212 482.90722656 27.74047852 C486.48528717 34.57621871 490.05545895 41.41504269 493.53222656 48.30297852 C493.850625 48.92688477 494.16902344 49.55079102 494.49707031 50.19360352 C496.30280239 53.7971129 497.72297061 57.38871533 498.90722656 61.24047852 C499.56722656 61.24047852 500.22722656 61.24047852 500.90722656 61.24047852 C501.16890625 60.66813477 501.43058594 60.09579102 501.70019531 59.50610352 C502.99672126 57.07249495 504.47573999 55.12658199 506.21972656 52.99047852 C507.28707031 51.67563477 507.28707031 51.67563477 508.37597656 50.33422852 C509.21128906 49.31329102 510.04660156 48.29235352 510.90722656 47.24047852 C513.01310484 44.65853732 515.11661415 42.07467287 517.21972656 39.49047852 C517.77813232 38.80526123 518.33653809 38.12004395 518.91186523 37.4140625 C522.50264207 32.99866409 526.03585533 28.54334793 529.53222656 24.05297852 C533.65798509 18.75695814 537.92019994 13.59578041 542.29248047 8.50146484 C544.92325236 5.44849087 544.92325236 5.44849087 547.14607239 2.09747314 C548.90722656 0.24047852 548.90722656 0.24047852 551.81156921 -0.24053955 C552.99515518 -0.2316571 554.17874115 -0.22277466 555.39819336 -0.21362305 C556.05212067 -0.21420715 556.70604797 -0.21479126 557.37979126 -0.21539307 C559.53921779 -0.21260836 561.69726028 -0.1815019 563.85644531 -0.15014648 C565.3543065 -0.14268538 566.85217744 -0.13699183 568.35005188 -0.13299561 C572.29093413 -0.11772875 576.23122592 -0.07843872 580.171875 -0.03417969 C584.19360364 0.00675084 588.21542776 0.02501061 592.23730469 0.04516602 C600.1275495 0.08805526 608.01731457 0.15631844 615.90722656 0.24047852 C614.95507689 1.52092724 614.00141495 2.80025152 613.04711914 4.07910156 C612.5162117 4.79164597 611.98530426 5.50419037 611.43830872 6.23832703 C609.60897952 8.63048747 607.64507103 10.84818248 605.59472656 13.05297852 C602.50640553 16.43420187 599.53655398 19.86712222 596.65722656 23.42797852 C591.44204141 29.86759845 585.99390905 36.09503255 580.55371094 42.34399414 C577.97085273 45.31903011 575.40662225 48.30988934 572.84472656 51.30297852 C572.35456055 51.87564453 571.86439453 52.44831055 571.359375 53.03833008 C570.37133797 54.1928829 569.38338208 55.34750518 568.39550781 56.50219727 C566.89050607 58.2600077 565.38354954 60.01612297 563.87597656 61.77172852 C558.58141118 67.93864063 553.30351873 74.11863567 548.06469727 80.33300781 C545.63604814 83.21048147 543.1923762 86.07359972 540.72753906 88.92016602 C540.19451172 89.53698242 539.66148437 90.15379883 539.11230469 90.78930664 C538.09531632 91.96468875 537.0759685 93.13803564 536.05371094 94.30883789 C532.75063703 98.12986286 529.79351128 102.09472411 526.90722656 106.24047852 C533.04516477 117.14403374 539.1853725 128.04545015 545.46972656 138.86547852 C554.09618613 153.71876737 562.58892806 168.64741422 571.02490234 183.60961914 C573.78552834 188.50220548 576.55990882 193.38618105 579.36035156 198.25610352 C579.91400391 199.21967773 580.46765625 200.18325195 581.03808594 201.17602539 C582.0943234 203.01201838 583.15281323 204.84671797 584.21386719 206.67993164 C584.68501953 207.49913086 585.15617187 208.31833008 585.64160156 209.16235352 C586.05635742 209.88003906 586.47111328 210.59772461 586.8984375 211.3371582 C587.90722656 213.24047852 587.90722656 213.24047852 588.90722656 216.24047852 C580.18005467 216.54250728 571.45469519 216.7730579 562.72342682 216.91403675 C558.66822525 216.98172649 554.61661198 217.0733931 550.56347656 217.22119141 C546.64683786 217.36310828 542.733633 217.44029217 538.81462097 217.47388268 C537.32466013 217.49779405 535.83487541 217.5445026 534.34638977 217.61496925 C529.63986903 217.82879233 525.42773521 217.77817187 520.90722656 216.24047852 C517.16804979 212.30804672 515.14163738 208.19709307 512.90722656 203.24047852 C512.19787682 201.99157464 511.47412656 200.75040884 510.72070312 199.52758789 C510.16866211 198.5562793 509.61662109 197.5849707 509.04785156 196.58422852 C508.41234375 195.46886719 507.77683594 194.35350586 507.12207031 193.2043457 C506.47367188 192.06126953 505.82527344 190.91819336 505.15722656 189.74047852 C504.46604769 188.52583087 503.77463795 187.31131458 503.08300781 186.09692383 C501.69334536 183.65640494 500.30473941 181.21529006 498.91699219 178.77368164 C495.92282159 173.50742583 492.91457772 168.24921459 489.90722656 162.99047852 C488.92799328 161.27697492 487.94881923 159.56343746 486.96972656 157.84985352 C486.56882812 157.14828125 486.16792969 156.44670898 485.75488281 155.72387695 C485.47515625 155.23435547 485.19542969 154.74483398 484.90722656 154.24047852 C480.93751594 158.10727071 477.27226289 162.16706047 473.65722656 166.36547852 C473.08439941 167.02854004 472.51157227 167.69160156 471.92138672 168.37475586 C467.91839892 173.02450971 464.00535492 177.73986762 460.14160156 182.50610352 C455.80484113 187.81332782 451.34495237 193.01767456 446.90722656 198.24047852 C444.9269517 200.57287403 442.94807151 202.906446 440.96972656 205.24047852 C440.29707764 206.03204346 440.29707764 206.03204346 439.61083984 206.83959961 C437.66558033 209.13440368 435.81986449 211.37253132 434.15789795 213.88468933 C431.90722656 216.24047852 431.90722656 216.24047852 428.95855713 216.8417511 C427.23980377 216.82509651 427.23980377 216.82509651 425.48632812 216.80810547 C424.18528137 216.80772781 422.88423462 216.80735016 421.54376221 216.80696106 C420.1284489 216.78142952 418.71314539 216.75534957 417.29785156 216.72875977 C415.84626483 216.71943036 414.39466232 216.71231484 412.9430542 216.70732117 C409.12860389 216.68826076 405.31511063 216.63917022 401.5010376 216.58380127 C397.6066177 216.53258692 393.71204264 216.50980259 389.81738281 216.48461914 C382.18022848 216.43104882 374.54386179 216.34574984 366.90722656 216.24047852 C368.53338396 212.8492637 370.43305989 210.20308401 372.84472656 207.30297852 C373.6478125 206.33489258 374.45089844 205.36680664 375.27832031 204.36938477 C378.44453421 200.59258649 381.62993752 196.83198441 384.82128906 193.07641602 C387.70155206 189.68267995 390.53861599 186.25860473 393.34472656 182.80297852 C397.30230844 177.93918826 401.37265103 173.1816662 405.46557617 168.43212891 C409.24363112 164.03891602 412.92108221 159.57267453 416.57128906 155.07250977 C419.25919275 151.81376366 422.01756271 148.62152817 424.78222656 145.42797852 C429.34658114 140.15064753 433.69300432 134.74080297 437.9621582 129.22314453 C441.41085347 124.79555376 445.08999383 120.6359076 448.89160156 116.50610352 C451.79041002 113.24775293 454.37862627 109.790435 456.90722656 106.24047852 C445.07535024 81.89629848 431.87960003 58.15225086 418.71972656 34.50610352 C418.20571289 33.57991211 417.69169922 32.6537207 417.16210938 31.69946289 C416.18083881 29.93304852 415.19598011 28.16862121 414.20703125 26.40649414 C413.55589355 25.23376953 413.55589355 25.23376953 412.89160156 24.03735352 C412.50713867 23.34996094 412.12267578 22.66256836 411.7265625 21.9543457 C410.90722656 20.24047852 410.90722656 20.24047852 410.90722656 18.24047852 C410.24722656 18.24047852 409.58722656 18.24047852 408.90722656 18.24047852 C408.48534058 19.33223389 408.48534058 19.33223389 408.05493164 20.44604492 C406.19158943 24.9829126 403.86639334 29.27207482 401.59472656 33.61547852 C401.06492187 34.63061523 400.53511719 35.64575195 399.98925781 36.69165039 C395.74766133 44.76163619 391.29147242 52.69476609 386.76757812 60.60888672 C382.44154294 68.21040382 378.36599755 75.92250057 374.35205078 83.69238281 C370.51611546 91.10806284 366.55667664 98.44820607 362.54321289 105.76904297 C358.67493391 112.82619888 354.84449727 119.9029139 351.03222656 126.99047852 C350.4529541 128.066604 349.87368164 129.14272949 349.27685547 130.25146484 C346.53563833 135.34591962 343.79800053 140.4422473 341.068573 145.54302979 C340.12479717 147.30621141 339.17983435 149.0687575 338.23486328 150.83129883 C337.05472847 153.0326617 335.87652827 155.2350633 334.70068359 157.4387207 C331.6676707 163.09226397 328.50697408 168.63070965 325.17578125 174.11352539 C323.74251205 176.51665112 322.48092664 178.96260761 321.28222656 181.49047852 C318.27390172 187.61914029 315.04430848 193.61844037 311.78222656 199.61547852 C311.26708496 200.56712891 310.75194336 201.5187793 310.22119141 202.49926758 C309.47409912 203.86776855 309.47409912 203.86776855 308.71191406 205.26391602 C308.26831543 206.07779785 307.8247168 206.89167969 307.36767578 207.73022461 C306.64475342 208.97280029 306.64475342 208.97280029 305.90722656 210.24047852 C305.22829346 211.86131348 305.22829346 211.86131348 304.53564453 213.51489258 C301.41543569 216.75045002 300.5687093 216.69323059 296.22070312 216.92163086 C293.82954215 216.92068103 291.43825048 216.88678756 289.04785156 216.82641602 C287.78833679 216.81792633 286.52882202 216.80943665 285.23114014 216.8006897 C281.88955129 216.77279434 278.55043499 216.71894248 275.20953369 216.65246582 C271.79778368 216.59097822 268.38577773 216.56366127 264.97363281 216.53344727 C258.28414825 216.46726973 251.59583012 216.36684619 244.90722656 216.24047852 C244.4298094 214.83520236 243.95477794 213.4291156 243.48071289 212.02270508 C243.08351799 210.84831879 243.08351799 210.84831879 242.67829895 209.65020752 C241.45002638 205.81165216 240.5292223 201.90887218 239.59472656 197.99047852 C237.89572451 191.02314235 236.04794328 184.1225685 234.03222656 177.24047852 C229.59923386 162.03832315 225.61489265 146.63473215 222.36474609 131.1340332 C221.87657228 129.11360839 221.23458952 127.19592941 220.53222656 125.24047852 C219.14215406 121.21406162 218.15352389 117.14113273 217.21972656 112.99047852 C215.37551223 104.8331602 213.15963876 96.79357403 210.90722656 88.74047852 C208.5261461 80.21931715 206.22311134 71.7110609 204.27441406 63.08081055 C203.12850797 58.04972505 201.80225922 53.08298962 200.40722656 48.11547852 C200.19791504 47.36919189 199.98860352 46.62290527 199.77294922 45.85400391 C198.95069919 42.9306971 198.12538047 40.00828277 197.29541016 37.0871582 C196.72118969 35.05689552 196.15698487 33.02408124 195.59472656 30.99047852 C195.26859375 29.83032227 194.94246094 28.67016602 194.60644531 27.47485352 C193.91754968 24.28823016 193.77434081 21.48879703 193.90722656 18.24047852 C186.41399512 25.49199281 179.70908037 33.42290922 173.15722656 41.52172852 C170.97221087 44.16195581 168.71551266 46.70777572 166.40722656 49.24047852 C163.38440235 52.56037338 160.48210495 55.93811963 157.65722656 59.42797852 C154.05252221 63.87900476 150.35344392 68.23239104 146.59472656 72.55297852 C146.04510254 73.18502197 145.49547852 73.81706543 144.92919922 74.46826172 C143.81152143 75.75298817 142.69368245 77.03757442 141.57568359 78.32202148 C138.88709894 81.41346109 136.20531657 84.5106305 133.53222656 87.61547852 C133.0356958 88.19160889 132.53916504 88.76773926 132.02758789 89.36132812 C128.58995567 93.37605148 125.33187101 97.4953182 122.21191406 101.76391602 C121.78136719 102.25118164 121.35082031 102.73844727 120.90722656 103.24047852 C120.24722656 103.24047852 119.58722656 103.24047852 118.90722656 103.24047852 C119.49861223 107.10983046 120.64953434 109.95603516 122.57519531 113.35375977 C123.13134521 114.34166504 123.68749512 115.32957031 124.26049805 116.34741211 C124.86579346 117.40524902 125.47108887 118.46308594 126.09472656 119.55297852 C126.72258057 120.66237793 127.35043457 121.77177734 127.99731445 122.91479492 C132.78008179 131.33938747 137.6644784 139.70393446 142.57275391 148.0559082 C147.07370724 155.7405853 151.41763568 163.50611438 155.71972656 171.30297852 C160.30381915 179.60814524 164.96794673 187.83112926 169.90332031 195.93188477 C172.11976159 199.59138917 174.27656101 203.28058565 176.40722656 206.99047852 C177.38175781 208.68430664 177.38175781 208.68430664 178.37597656 210.41235352 C179.90722656 213.24047852 179.90722656 213.24047852 180.90722656 216.24047852 C158.13722656 216.24047852 135.36722656 216.24047852 111.90722656 216.24047852 C106.46222656 206.34047852 106.46222656 206.34047852 100.90722656 196.24047852 C98.57148826 192.16438619 96.22939616 188.09960366 93.84472656 184.05297852 C92.661108 182.03867018 91.47751444 180.02434715 90.29394531 178.01000977 C89.72466309 177.04272949 89.15538086 176.07544922 88.56884766 175.07885742 C86.98551219 172.37420591 85.42131817 169.65954089 83.86425781 166.93969727 C83.40349854 166.14007568 82.94273926 165.3404541 82.46801758 164.51660156 C81.61515755 163.03565277 80.76768883 161.55158169 79.92651367 160.06396484 C78.97575372 158.42260313 77.94944628 156.82534155 76.90722656 155.24047852 C76.24722656 155.24047852 75.58722656 155.24047852 74.90722656 155.24047852 C72.97549948 157.30480464 71.15189043 159.38348724 69.34472656 161.55297852 C68.53455078 162.51204102 68.53455078 162.51204102 67.70800781 163.49047852 C63.83832986 168.08457486 60.0366254 172.73324807 56.25097656 177.39672852 C53.5142034 180.71734661 50.71609399 183.98085411 47.90722656 187.24047852 C44.29706181 191.4321768 40.72115462 195.64438154 37.21972656 199.92797852 C36.54090927 200.74211716 35.86209198 201.5562558 35.16270447 202.39506531 C32.87931074 205.180201 32.87931074 205.180201 31.04811096 208.12776184 C28.07418124 212.47886765 25.78648448 215.69415663 20.59640503 217.20297241 C16.6388006 217.51104626 12.76781441 217.48143379 8.80957031 217.31469727 C7.36517809 217.29414219 5.92070837 217.27850236 4.47621155 217.26753235 C0.70116829 217.22582425 -3.06910734 217.11806934 -6.84228516 216.99578857 C-10.70311988 216.88260018 -14.56473694 216.83288472 -18.42675781 216.77758789 C-25.98425414 216.66013862 -33.5378422 216.47280016 -41.09277344 216.24047852 C-39.58935946 212.23441764 -37.98650172 209.7333348 -35.03027344 206.61547852 C-31.82616782 203.15626895 -28.74435075 199.65771285 -25.78027344 195.99047852 C-22.2884447 191.67596761 -18.71696508 187.44342323 -15.09277344 183.24047852 C-10.77683869 178.2316371 -6.54750592 173.16467602 -2.38183594 168.02954102 C0.6997748 164.27481394 3.85701055 160.58629774 7.01269531 156.89379883 C10.12522721 153.22925807 13.0431103 149.48112062 15.78613281 145.53344727 C16.15609375 145.10676758 16.52605469 144.68008789 16.90722656 144.24047852 C17.56722656 144.24047852 18.22722656 144.24047852 18.90722656 144.24047852 C19.15730469 143.68102539 19.40738281 143.12157227 19.66503906 142.54516602 C21.11146495 139.86154565 22.83461156 137.71260429 24.78222656 135.36547852 C25.58015625 134.40254883 26.37808594 133.43961914 27.20019531 132.44750977 C29.61865968 129.56889907 32.06964895 126.71899302 34.52612305 123.87280273 C36.55480626 121.51921446 38.57280706 119.15669438 40.5859375 116.78979492 C41.73010278 115.44817022 42.88418162 114.11501198 44.04003906 112.78344727 C44.59433594 112.10926758 45.14863281 111.43508789 45.71972656 110.74047852 C46.17992187 110.19391602 46.64011719 109.64735352 47.11425781 109.08422852 C48.40339561 106.08682438 47.79851084 104.37981991 46.90722656 101.24047852 C45.32613984 97.85205205 43.50045037 94.61713808 41.65722656 91.36547852 C40.55769296 89.38923597 39.4587552 87.41266182 38.36035156 85.43579102 C37.78994141 84.41517578 37.21953125 83.39456055 36.63183594 82.34301758 C33.84660838 77.33244683 31.12903011 72.28569276 28.40722656 67.24047852 C24.23301528 59.52487011 20.0467013 51.81600158 15.84472656 44.11547852 C15.35866943 43.22441406 14.8726123 42.33334961 14.37182617 41.4152832 C11.80766217 36.71637083 9.23878826 32.02008535 6.66503906 27.32641602 C5.86271851 25.86099365 5.86271851 25.86099365 5.04418945 24.3659668 C4.03187709 22.5171507 3.01815825 20.66910364 2.00268555 18.82202148 C-1.16803406 13.02750522 -4.17881397 7.16819601 -7.09277344 1.24047852 C-5.27578749 -0.57650744 -2.44792295 0.04642701 0 0 Z " fill="#0297EA" transform="translate(871.0927734375,680.759521484375)"/>
<path d="M0 0 C1.10374145 -0.0039821 2.20748291 -0.00796419 3.34467107 -0.01206696 C4.55186463 -0.00624128 5.75905819 -0.00041559 7.00283337 0.00558662 C8.93259471 0.00302335 8.93259471 0.00302335 10.90134114 0.00040829 C14.47018366 -0.00406392 18.03890614 0.00393668 21.60773337 0.01396441 C25.45703382 0.02259844 29.30632747 0.01967879 33.15563488 0.01815987 C39.82413176 0.01711099 46.49258951 0.02338792 53.16107655 0.03463554 C62.80259301 0.05088714 72.44409055 0.0560982 82.08561923 0.05861153 C97.72821595 0.06298916 113.3707918 0.07630013 129.01337719 0.09521675 C144.20901415 0.11357377 159.40464544 0.12773115 174.60029125 0.13623238 C175.53689425 0.13675782 176.47349724 0.13728327 177.43848214 0.13782464 C182.13712731 0.14043471 186.83577252 0.14296213 191.53441775 0.14544845 C230.51659526 0.16618308 269.4987495 0.20141049 308.48090649 0.24609566 C308.32242435 1.84941698 308.16341838 3.45268653 308.00419044 5.05593395 C307.91570003 5.94876019 307.82720961 6.84158642 307.73603767 7.76146799 C307.45898193 10.45961079 307.12823026 13.14507575 306.75654125 15.83178902 C306.55611973 17.28765671 306.55611973 17.28765671 306.35164928 18.77293587 C306.13912769 20.28912262 306.13912769 20.28912262 305.92231274 21.83593941 C305.69849171 23.43545197 305.69849171 23.43545197 305.47014904 25.06727791 C305.15617608 27.30193988 304.84097922 29.53643021 304.52460766 31.77075386 C304.04149566 35.19714789 303.56883725 38.62489191 303.09614086 42.05273628 C302.788844 44.23056189 302.48092355 46.40829961 302.17231274 48.58593941 C301.96282749 50.12338058 301.96282749 50.12338058 301.74911022 51.69188118 C301.61234371 52.64039452 301.4755772 53.58890785 301.33466625 54.56616402 C301.21776943 55.39981987 301.10087261 56.23347572 300.98043346 57.09239388 C300.48090649 59.24609566 300.48090649 59.24609566 298.48090649 62.24609566 C296.68259621 62.62526989 296.68259621 62.62526989 294.466609 62.63136482 C293.62703655 62.64101265 292.7874641 62.65066048 291.92245007 62.66060066 C290.99935543 62.65602348 290.0762608 62.6514463 289.1251936 62.64673042 C288.15424755 62.65370949 287.18330151 62.66068855 286.18293285 62.6678791 C282.95795174 62.68794854 279.73328844 62.68735604 276.50825024 62.68750191 C274.26821558 62.69926948 272.02818878 62.71263217 269.78817272 62.72752571 C263.87492516 62.76381349 257.96174712 62.7839368 252.04841137 62.79907417 C242.60794456 62.82383647 233.16763177 62.86372247 223.72730732 62.92097473 C220.43427569 62.93724973 217.14138969 62.94107776 213.84832287 62.94398689 C211.81300645 62.95377116 209.77769227 62.96403573 207.7423811 62.97485542 C206.83345608 62.97230247 205.92453106 62.96974953 204.98806286 62.96711922 C195.21865121 62.88860112 195.21865121 62.88860112 186.62255287 66.78019238 C176.21195198 77.70050926 176.6135544 97.45020816 174.48090649 110.24609566 C206.49090649 110.24609566 238.50090649 110.24609566 271.48090649 110.24609566 C272.32832449 114.48318566 272.56388472 116.08058681 271.80903149 120.02734566 C271.6406477 120.94161324 271.47226391 121.85588081 271.29877758 122.79785347 C271.11138012 123.77077339 270.92398266 124.74369331 270.73090649 125.74609566 C269.12604553 134.46931393 267.70699762 143.18859225 266.52094555 151.97851753 C265.68148197 158.1212985 264.59352019 164.12672027 263.48090649 170.24609566 C230.81090649 170.24609566 198.14090649 170.24609566 164.48090649 170.24609566 C164.15090649 173.21609566 163.82090649 176.18609566 163.48090649 179.24609566 C163.24302892 180.94334386 162.99435895 182.63917861 162.72700024 184.33203316 C159.5261306 199.77286738 159.5261306 199.77286738 162.10590649 214.74609566 C165.93885353 218.78077676 169.59596499 220.38324541 175.11271191 220.64482307 C176.94736615 220.67111523 178.78229646 220.68126531 180.61713696 220.6784687 C181.62263088 220.68866035 182.62812481 220.69885201 183.66408825 220.70935249 C186.97548036 220.7394585 190.28658305 220.74874499 193.59809399 220.75781441 C195.89881379 220.77466282 198.1995244 220.79281328 200.50022411 220.81221199 C206.54671385 220.85970018 212.59316629 220.88951739 218.639781 220.91565132 C224.81346023 220.94546263 230.98701101 220.99199107 237.16059399 221.03711128 C249.26729761 221.12313109 261.37402768 221.19048244 273.48090649 221.24609566 C273.33655823 223.79923548 273.18810067 226.35202672 273.03730297 228.90478706 C272.99716831 229.62215538 272.95703365 230.3395237 272.91568279 231.07863045 C272.62593413 235.91319014 272.01138594 240.56417722 271.05170727 245.31543159 C270.34239151 248.95727347 269.78168751 252.61738502 269.22700024 256.28515816 C269.1200584 256.98453499 269.01311657 257.68391182 268.90293407 258.40448189 C268.45974163 261.30353164 268.01890367 264.20291727 267.58271313 267.10302925 C267.25943892 269.24764312 266.93111442 271.3914339 266.60200024 273.53515816 C266.41049389 274.80053413 266.21898754 276.06591011 266.02167797 277.36963081 C265.48090649 280.24609566 265.48090649 280.24609566 264.48090649 281.24609566 C262.75451179 281.34793261 261.0239198 281.37901604 259.29452896 281.38311005 C257.59741243 281.39072186 257.59741243 281.39072186 255.86601073 281.39848745 C253.97793807 281.39923408 253.97793807 281.39923408 252.05172253 281.3999958 C250.71330017 281.4040079 249.37487904 281.4084457 248.03645939 281.41327536 C244.34111269 281.42527583 240.64577907 281.43089737 236.95041668 281.43545651 C232.97132862 281.44139983 228.9922563 281.45301316 225.01317883 281.46374702 C215.39240755 281.48830537 205.77163105 281.50290584 196.15083805 281.51580709 C193.43387317 281.51951737 190.71690881 281.52349076 187.99994445 281.52755976 C171.13381188 281.55280123 154.26767852 281.57485805 137.40153122 281.5872879 C133.49187308 281.5902177 129.58221496 281.59317934 125.67255688 281.59619331 C124.70080507 281.59693936 123.72905326 281.59768541 122.72785442 281.59845407 C106.99509289 281.61110061 91.26244457 281.64431149 75.52973593 281.68599515 C59.38177802 281.72842844 43.233878 281.75198481 27.08586448 281.75720847 C18.01767002 281.76062167 8.94965224 281.77236552 -0.11848736 281.8053112 C-7.84402853 281.83333247 -15.56935684 281.84430213 -23.29494487 281.83311574 C-27.23550432 281.82793377 -31.17561818 281.83078511 -35.11611271 281.85558128 C-38.72825502 281.87812084 -42.33963291 281.87729837 -45.95178903 281.85837741 C-47.86806537 281.85426681 -49.78434669 281.87468886 -51.7005071 281.8961643 C-60.29280759 281.81750917 -67.13362349 280.22257177 -73.62794298 274.33391988 C-79.87417561 267.83420345 -82.71124121 261.30425814 -83.08159351 252.30859566 C-82.80329328 243.6998418 -80.00405345 237.66054187 -74.20659351 231.37109566 C-68.11028224 225.71499942 -61.32671585 223.12868954 -53.07915211 223.10424995 C-52.10531574 223.09903831 -52.10531574 223.09903831 -51.11180592 223.09372139 C-49.70243528 223.08637431 -48.29305315 223.08102334 -46.88366795 223.07743073 C-44.64613285 223.07024569 -42.40881457 223.05456166 -40.17134571 223.03608894 C-33.8095911 222.98373275 -27.4479532 222.93571018 -21.08598804 222.92016792 C-17.19192214 222.91003216 -13.29839981 222.88056372 -9.4045496 222.83884811 C-7.92717208 222.82660804 -6.44971752 222.82140397 -4.97229099 222.82364655 C4.80108349 222.83482535 11.86131229 221.694483 20.23090649 216.55859566 C26.9200697 209.68362236 28.25654822 203.22208774 28.13813305 193.85009956 C27.80920385 187.3408353 26.40155175 182.76587369 21.48090649 178.24609566 C18.6112777 175.97120858 15.68190109 174.02119267 12.48090649 172.24609566 C11.86264555 171.89643368 11.24438461 171.5467717 10.6073885 171.1865139 C8.30483906 170.16823136 6.81087552 170.00006326 4.30875683 170.00799751 C3.48470852 170.00550499 2.66066021 170.00301247 1.81164074 170.00044441 C0.4681934 170.01134354 0.4681934 170.01134354 -0.90239429 170.02246284 C-1.85251896 170.02205498 -2.80264362 170.02164711 -3.78155994 170.02122688 C-5.84462941 170.02102938 -7.90770262 170.02506798 -9.97075748 170.03283119 C-13.24203316 170.04305702 -16.51292779 170.03767202 -19.78419971 170.02740669 C-29.08522144 169.99943902 -38.38603068 169.9868753 -47.68706226 170.01611519 C-53.37830938 170.03288587 -59.06887684 170.02046054 -64.7600565 169.98966408 C-66.92325399 169.98357651 -69.0865119 169.98838486 -71.24965763 170.0045414 C-84.27012575 170.09769015 -93.3851617 170.12824164 -103.17534351 160.68359566 C-103.78378101 159.87922066 -104.39221851 159.07484566 -105.01909351 158.24609566 C-105.64815601 157.44172066 -106.27721851 156.63734566 -106.92534351 155.80859566 C-111.30597536 148.7652268 -111.35542461 141.30690393 -110.51909351 133.24609566 C-108.32682263 125.47736875 -103.20657614 119.64014722 -96.51909351 115.24609566 C-89.02357384 111.56507908 -81.78414473 111.84402009 -73.57280445 111.90893745 C-72.06402059 111.90974483 -70.55523542 111.90914735 -69.04645252 111.90725899 C-65.80911842 111.90570324 -62.57197157 111.91304116 -59.33466816 111.92710114 C-54.20591065 111.94832711 -49.07737878 111.94344862 -43.94859791 111.93403816 C-29.36836057 111.91122123 -14.78825935 111.92302209 -0.20805836 111.96118355 C7.85375644 111.98205385 15.91528934 111.98125006 23.97709918 111.95764858 C29.06546294 111.94404 34.15282131 111.9569958 39.24108362 111.99024618 C42.42012559 112.00468741 45.59872689 111.99386805 48.77773762 111.97626305 C50.24014616 111.97311162 51.70262061 111.98002102 53.16491795 111.99832916 C63.60660902 112.12121368 72.53069548 110.58427802 80.54159451 103.39736652 C86.48390318 97.12472953 86.98154459 89.89413382 86.98066235 81.65307808 C86.82078796 76.19552121 85.93242026 72.36838501 82.39496899 68.04297066 C75.55693927 61.62359582 68.78914514 58.00015402 59.33906078 57.99072456 C58.63917034 57.98710411 57.9392799 57.98348366 57.21818066 57.97975349 C55.70462563 57.9728827 54.19104595 57.9703497 52.67747593 57.97170067 C50.27615676 57.97266985 47.87528042 57.95967696 45.47402477 57.94272041 C38.64896098 57.89657193 31.8239433 57.87185612 24.99872875 57.86523628 C20.81711854 57.86020358 16.63597134 57.83586523 12.45451832 57.79990959 C10.86744824 57.79015231 9.28031414 57.7877573 7.693223 57.79308128 C-1.95916971 57.82393867 -8.93517679 57.50702558 -16.90971851 51.42187691 C-24.12416215 44.19227688 -26.90717606 37.97884523 -27.20659351 27.80859566 C-27.17687669 21.13100785 -26.06604874 16.57422094 -21.65581226 11.33203316 C-15.23903483 5.06775683 -9.31371059 -0.00743016 0 0 Z " fill="#1E3B8A" transform="translate(238.51909351348877,607.7539043426514)"/>
<path d="M0 0 C1.25554687 0.02191406 2.51109375 0.04382813 3.8046875 0.06640625 C23.84124969 0.85665234 43.05679587 8.80974866 58 22 C59.03125 22.78375 60.0625 23.5675 61.125 24.375 C76.10906673 38.0561044 84.03865923 58.11823652 85.11376953 78.11621094 C86.06300781 104.87398437 86.06300781 104.87398437 82 113 C81.62878063 115.93785331 81.29662713 118.86708529 81 121.8125 C80.83543944 123.42339362 80.66882708 125.03407918 80.5 126.64453125 C80.4278125 127.35971924 80.355625 128.07490723 80.28125 128.81176758 C79.97098441 131.2257524 79.47731571 133.61342146 79 136 C26.86 136 -25.28 136 -79 136 C-75.80841056 148.76635776 -70.6958952 157.62971506 -59.32421875 164.75390625 C-55.68322574 166.70596805 -51.98441305 167.95113364 -48 169 C-46.22689453 169.52400391 -46.22689453 169.52400391 -44.41796875 170.05859375 C-39.2581643 171.33130153 -34.16619371 171.34267043 -28.875 171.3125 C-27.85817139 171.30758545 -26.84134277 171.3026709 -25.79370117 171.29760742 C-2.14382949 170.93098647 15.4073213 161.07253204 32 145 C35.93154658 148.78088512 39.3705762 152.78512445 42.75 157.0625 C43.26933105 157.71718262 43.78866211 158.37186523 44.32373047 159.04638672 C45.88851954 161.02627489 47.44598732 163.01164528 49 165 C49.46116211 165.5892627 49.92232422 166.17852539 50.39746094 166.78564453 C58.16647802 176.7640661 58.16647802 176.7640661 60 182 C38.39938576 205.70799124 6.01026019 219.56893935 -25.72729492 221.19042969 C-29.50780483 221.26633068 -33.2813557 221.27330443 -37.0625 221.25 C-38.32126953 221.25773438 -39.58003906 221.26546875 -40.87695312 221.2734375 C-64.34781457 221.22496902 -86.27034532 214.67883642 -104 199 C-104.6084375 198.53335938 -105.216875 198.06671875 -105.84375 197.5859375 C-120.42914531 186.24910751 -129.4937651 166.05476655 -132.59643555 148.25366211 C-133.29937073 142.58638007 -133.29553277 136.91404283 -133.26074219 131.21240234 C-133.25005039 129.1347919 -133.26068256 127.05805263 -133.2734375 124.98046875 C-133.28780111 113.03216143 -131.86673229 101.63759983 -128.375 90.1875 C-128.11702637 89.33857178 -127.85905273 88.48964355 -127.59326172 87.61499023 C-124.93911194 79.25402698 -121.3012613 71.62561898 -117 64 C-116.37222656 62.87078125 -115.74445312 61.7415625 -115.09765625 60.578125 C-98.69690505 32.53921292 -70.25912996 11.35787713 -38.92382812 2.86962891 C-25.85241742 -0.38795558 -13.40505141 -0.53649874 0 0 Z " fill="#0182FA" transform="translate(773,678)"/>
<path d="M0 0 C18.48 0 36.96 0 56 0 C56 8.95121951 56 8.95121951 55.1875 13.6875 C54.06345418 20.51946644 53.08733968 27.36648746 52.14135742 34.2253418 C51.53222731 38.56193522 50.84946818 42.86325487 50.0234375 47.1640625 C48.82714463 53.60974296 48.10783645 60.10483582 47.36865234 66.61499023 C46.18742846 76.96549414 44.9131349 87.25483277 43 97.5 C41.28157937 106.73126156 40.08527386 115.9904726 39 125.3125 C37.72970097 136.21050735 36.2951965 147.05762902 34.57250977 157.89501953 C33.08327797 167.31113464 31.74379433 176.74460703 30.4375 186.1875 C30.33013519 186.96241791 30.22277039 187.73733582 30.1121521 188.53573608 C28.69020329 198.81461 27.33105268 209.09998302 26.02319336 219.39404297 C25.31208514 224.89388638 24.46038643 230.35115193 23.5 235.8125 C22.21812009 243.11788195 21.32226912 250.44207599 20.5 257.8125 C19.56436345 266.17930886 18.58978234 274.53491563 17.4375 282.875 C17.32277344 283.74229736 17.20804688 284.60959473 17.08984375 285.50317383 C16.97640625 286.30392334 16.86296875 287.10467285 16.74609375 287.9296875 C16.60192017 288.96971924 16.60192017 288.96971924 16.45483398 290.03076172 C16 292 16 292 14 296 C-4.15 296 -22.3 296 -41 296 C-40.17805294 288.60247646 -39.28077535 281.22598421 -38.32543945 273.84545898 C-38.0652789 271.83398549 -37.80696982 269.82228033 -37.54882812 267.81054688 C-36.58645111 260.33977402 -35.57064008 252.8782996 -34.4934082 245.4230957 C-33.99786015 241.98515447 -33.51499266 238.54563531 -33.03515625 235.10546875 C-30.06970692 213.96798677 -30.06970692 213.96798677 -28.375 204.875 C-27.19817211 198.55390801 -26.42221103 192.2427733 -25.7668457 185.85107422 C-25.20824117 180.53151914 -24.44199531 175.27528914 -23.5625 170 C-22.12136445 161.31952381 -21.09402722 152.61205877 -20.17797852 143.86132812 C-19.51470982 137.74123303 -18.64242804 131.69286518 -17.59765625 125.62890625 C-15.56376991 113.79784257 -14.0846566 101.89569765 -12.54956055 89.99169922 C-12.16993487 87.05659713 -11.78624477 84.12204546 -11.40234375 81.1875 C-11.29083481 80.31125977 -11.17932587 79.43501953 -11.06443787 78.53222656 C-10.3892885 73.37738119 -9.51427059 68.30624359 -8.43969727 63.21920776 C-7.77529738 59.86589744 -7.42170996 56.525521 -7.0625 53.125 C-6.37214293 46.86833243 -5.52195592 40.65897198 -4.5625 34.4375 C-2.84814902 22.98563543 -1.43625689 11.49005516 0 0 Z " fill="#027CFD" transform="translate(586,601)"/>
<path d="M0 0 C1.37409782 -0.0149778 1.37409782 -0.0149778 2.7759552 -0.03025818 C4.70809442 -0.0453868 6.64031138 -0.05248561 8.57250977 -0.05200195 C11.49435257 -0.05853743 14.41274553 -0.11300022 17.33398438 -0.16992188 C28.92331563 -0.2746041 38.21051069 0.20718709 47.30297852 8.24658203 C52.76360662 13.85281526 55.53357332 20.68150019 55.83203125 28.44140625 C55.41995496 38.28128861 51.94618122 44.53245478 45.13671875 51.49609375 C38.09512115 56.53701459 30.79073297 58.12352292 22.265625 58.10546875 C20.88722191 58.11832413 20.88722191 58.11832413 19.48097229 58.13143921 C17.5541613 58.14283713 15.62726434 58.14399234 13.70043945 58.13525391 C10.77209881 58.12891181 7.84776771 58.17601895 4.91992188 58.2265625 C-12.0633262 58.34275947 -12.0633262 58.34275947 -18.14135742 53.09033203 C-18.89703003 52.30505127 -18.89703003 52.30505127 -19.66796875 51.50390625 C-20.50070313 50.75367188 -21.3334375 50.0034375 -22.19140625 49.23046875 C-28.77381861 41.75929185 -31.43375819 35.74529532 -31.140625 25.6640625 C-29.86930324 17.16406828 -25.40749799 10.34389561 -18.890625 4.90625 C-12.54675529 0.90370303 -7.3758082 0.02840788 0 0 Z " fill="#203D8D" transform="translate(46.66796875,719.49609375)"/>
<path d="M0 0 C5.96058183 5.32157394 10.25273196 11.22055574 12.22265625 18.984375 C12.22265625 22.944375 12.22265625 26.904375 12.22265625 30.984375 C-21.43734375 30.984375 -55.09734375 30.984375 -89.77734375 30.984375 C-87.15591135 17.87721302 -78.30694231 8.48950129 -67.46484375 1.171875 C-47.42831271 -10.82740347 -19.63246728 -14.93982876 0 0 Z " fill="#FCFDFE" transform="translate(789.77734375,736.015625)"/>
<path d="M0 0 C1.13381104 0.01135986 1.13381104 0.01135986 2.29052734 0.02294922 C7.90662147 0.18945104 12.08163223 0.96444483 16.625 4.4375 C17.223125 4.82679688 17.82125 5.21609375 18.4375 5.6171875 C24.82670225 10.27139086 28.67172436 17.55536692 30.171875 25.23828125 C30.59587832 33.37678943 27.82309356 40.99750717 23.0859375 47.57421875 C17.87008682 53.27210302 11.62766654 56.95514906 3.9296875 57.8828125 C-3.39770634 58.10132325 -9.35970816 57.82664835 -15.375 53.4375 C-16.426875 52.695 -17.47875 51.9525 -18.5625 51.1875 C-25.0901256 44.80493274 -28.61979588 37.3919554 -28.8125 28.1875 C-28.65233322 20.36602241 -26.58306251 14.8932438 -21.25 9.1484375 C-14.62544346 2.99386639 -9.07053654 -0.12634176 0 0 Z " fill="#213F8E" transform="translate(100.375,831.5625)"/>
<path d="M0 0 C0.66 0 1.32 0 2 0 C1.69272975 2.81316358 1.37944848 5.62542519 1.0625 8.4375 C0.97548828 9.23994141 0.88847656 10.04238281 0.79882812 10.86914062 C0.11328125 16.88671875 0.11328125 16.88671875 -1 18 C-2.73300596 18.0991489 -4.47009125 18.12739721 -6.20593071 18.12863445 C-7.34165862 18.1318589 -8.47738653 18.13508335 -9.64753044 18.1384055 C-10.91102038 18.1368569 -12.17451032 18.1353083 -13.47628784 18.13371277 C-14.81969839 18.13557894 -16.1631084 18.13787886 -17.50651753 18.14057809 C-21.21538556 18.14672662 -24.92423116 18.14655893 -28.63310313 18.14538372 C-32.62636718 18.14518047 -36.61962386 18.15069114 -40.61288452 18.15544128 C-48.443072 18.16376523 -56.27325196 18.16649692 -64.10344349 18.16705366 C-70.46542872 18.16752803 -76.82741146 18.16957877 -83.1893959 18.17275429 C-101.20832629 18.18156583 -119.22725071 18.18617291 -137.24618326 18.18542381 C-138.70479374 18.18536388 -138.70479374 18.18536388 -140.19287109 18.18530273 C-141.65325307 18.18524141 -141.65325307 18.18524141 -143.14313771 18.18517885 C-158.92584876 18.1847723 -174.70853597 18.19434286 -190.49124013 18.2084411 C-206.67871561 18.22278734 -222.86617946 18.22971224 -239.05366147 18.22884732 C-248.14895263 18.22851473 -257.24421879 18.23128884 -266.33950424 18.24202538 C-274.08313427 18.2511074 -281.82672797 18.25332466 -289.570361 18.24651595 C-293.52408528 18.24323899 -297.47773978 18.24323614 -301.43145752 18.2518692 C-305.04734392 18.25968363 -308.66310463 18.25835509 -312.27898778 18.24958507 C-314.21432312 18.2473035 -316.14966221 18.25491827 -318.08498275 18.26282471 C-319.22592616 18.25822592 -320.36686956 18.25362712 -321.54238701 18.24888897 C-322.5310164 18.24910634 -323.51964578 18.24932371 -324.53823364 18.24954766 C-327 18 -327 18 -330 16 C-221.76 16 -113.52 16 -2 16 C-1.34 10.72 -0.68 5.44 0 0 Z " fill="#285EAA" transform="translate(504,871)"/>
<path d="M0 0 C1.09975936 -0.00199105 2.19951871 -0.0039821 3.33260411 -0.00603348 C5.15213297 -0.00166422 5.15213297 -0.00166422 7.00841999 0.00279331 C8.29321871 0.00193889 9.57801742 0.00108446 10.90174943 0.00020415 C14.47507676 -0.00203758 18.04837426 0.00197609 21.62169778 0.00698221 C25.47239678 0.01129112 29.32309402 0.00983997 33.17379475 0.00907993 C39.84777127 0.00855498 46.52173803 0.01169881 53.19571209 0.01731777 C62.84521887 0.02543662 72.49472093 0.02804839 82.14423076 0.02930576 C97.79902116 0.03149567 113.45380636 0.03815412 129.10859394 0.04760838 C144.31790357 0.05678406 159.52721179 0.06386413 174.73652363 0.06811619 C175.67365207 0.06837891 176.61078051 0.06864164 177.57630678 0.06891232 C182.27749324 0.07021733 186.97867972 0.07148105 191.67986619 0.07272422 C230.69558182 0.08309494 269.71129164 0.10071162 308.72700214 0.12304783 C308.56900619 1.72787072 308.41030702 3.3326244 308.25130939 4.93734837 C308.16300893 5.8310029 308.07470846 6.72465744 307.98373222 7.64539242 C307.71205053 10.26734311 307.37260444 12.86911984 306.97309589 15.47461033 C306.84096699 16.34472752 306.70883808 17.2148447 306.57270527 18.11132908 C306.37064472 19.41650486 306.37064472 19.41650486 306.16450214 20.74804783 C306.02592793 21.65683689 305.88735371 22.56562595 305.74458027 23.50195408 C305.40766278 25.70934453 305.06844549 27.91635374 304.72700214 30.12304783 C304.39700214 30.12304783 304.06700214 30.12304783 303.72700214 30.12304783 C303.84304379 27.51821815 303.96970662 24.91456468 304.10200214 22.31054783 C304.13293964 21.59189548 304.16387714 20.87324314 304.19575214 20.13281345 C304.42544845 15.78772492 304.95133069 11.60264122 305.75288105 7.32348728 C305.93476978 6.34579884 306.11665852 5.36811039 306.30405903 4.36079502 C306.44363026 3.62233845 306.58320148 2.88388187 306.72700214 2.12304783 C267.20957226 2.1001661 227.69214324 2.08254177 188.17470806 2.0719825 C183.51082431 2.07073177 178.84694057 2.06943745 174.18305683 2.06811619 C173.2545495 2.06785388 172.32604217 2.06759157 171.36939825 2.06732131 C156.32907582 2.06296831 141.2887572 2.05508278 126.24843703 2.04589503 C110.81921898 2.03654822 95.39000293 2.03099003 79.96078217 2.02895933 C70.43778969 2.02758625 60.914808 2.0232472 51.39181884 2.01513136 C44.8642798 2.00985125 38.33674635 2.00824643 31.80920534 2.00954645 C28.04145886 2.01018784 24.27373126 2.0091947 20.50598812 2.00384235 C16.42241033 1.99808366 12.33887286 2.00005699 8.25529194 2.00279331 C7.06268407 1.99988047 5.8700762 1.99696763 4.64132869 1.99396652 C3.54604638 1.99595757 2.45076406 1.99794862 1.32229137 2 C0.37982551 1.99962028 -0.56264035 1.99924056 -1.53366578 1.99884933 C-4.51010675 2.1337981 -7.34588108 2.57931676 -10.27299786 3.12304783 C-7.09521019 -0.05473984 -4.28746413 -0.00170883 0 0 Z " fill="#3B72B7" transform="translate(238.27299785614014,607.8769521713257)"/>
<path d="M0 0 C0.33 0 0.66 0 1 0 C1.125 6.75 1.125 6.75 0 9 C-0.37121937 11.93785331 -0.70337287 14.86708529 -1 17.8125 C-1.16456056 19.42339362 -1.33117292 21.03407918 -1.5 22.64453125 C-1.5721875 23.35971924 -1.644375 24.07490723 -1.71875 24.81176758 C-2.02901559 27.2257524 -2.52268429 29.61342146 -3 32 C-55.14 32 -107.28 32 -161 32 C-161 31.67 -161 31.34 -161 31 C-109.19 31 -57.38 31 -4 31 C-4 27.7 -4 24.4 -4 21 C-2.7 5.4 -2.7 5.4 0 0 Z " fill="#63A2E1" transform="translate(855,782)"/>
<path d="M0 0 C0.99 0.495 0.99 0.495 2 1 C-1.21267944 3.86694973 -3.27494956 4.37757808 -7.54507446 4.39199829 C-9.2386911 4.40863777 -9.2386911 4.40863777 -10.96652222 4.4256134 C-12.20169586 4.42260727 -13.43686951 4.41960114 -14.70947266 4.41650391 C-16.01428589 4.42508926 -17.31909912 4.43367462 -18.66345215 4.44252014 C-22.24752687 4.46587445 -25.83142837 4.4709962 -29.41556978 4.47317934 C-33.19111625 4.47886016 -36.96655198 4.50216304 -40.74203491 4.52377319 C-47.92160335 4.56235575 -55.10114009 4.58651802 -62.28078592 4.60489786 C-75.05053928 4.63809621 -87.82019063 4.69696001 -100.58983266 4.75888956 C-105.05262269 4.77999319 -109.51538328 4.79536537 -113.97821033 4.805848 C-131.33771288 4.84919601 -148.65805776 5.17956823 -166 6 C-162.43545421 2.43545421 -158.52968705 2.87178278 -153.66822815 2.85523987 C-151.71452805 2.84489212 -151.71452805 2.84489212 -149.72135925 2.83433533 C-148.27981581 2.83162085 -146.83827222 2.82898368 -145.39672852 2.82641602 C-143.877175 2.82010904 -142.35762332 2.81334308 -140.83807373 2.80615234 C-137.56689908 2.79149348 -134.29573151 2.77976433 -131.02453804 2.77020454 C-125.85185021 2.75474488 -120.67922341 2.73079645 -115.50657654 2.70530701 C-100.79796198 2.63412132 -86.08931282 2.57429814 -71.38061523 2.52319336 C-63.25632484 2.49489084 -55.13209553 2.45951229 -47.00786918 2.41653961 C-41.86607592 2.38977005 -36.72435173 2.37186333 -31.58250248 2.36050236 C-28.38315347 2.35137488 -25.18388843 2.33401263 -21.98458862 2.31432343 C-20.50153359 2.30685198 -19.01845702 2.30276711 -17.53538322 2.30232811 C-15.50981528 2.30124441 -13.48426759 2.28682443 -11.45875549 2.27174377 C-10.32553643 2.26751184 -9.19231737 2.2632799 -8.02475834 2.25891972 C-4.96648163 1.99713082 -2.80993607 1.1644347 0 0 Z " fill="#2C64AD" transform="translate(310,717)"/>
<path d="M0 0 C0.66 0.33 1.32 0.66 2 1 C0.92492371 2.29854721 -0.16043736 3.58858361 -1.25 4.875 C-1.85328125 5.59429688 -2.4565625 6.31359375 -3.078125 7.0546875 C-5 9 -5 9 -7.15625 10.0546875 C-9.39246269 10.94246916 -9.39246269 10.94246916 -10.25 14.25 C-12.16007897 23.76566614 -12.24012552 32.69980117 -7 41 C-6.30959426 42.65697379 -5.63028587 44.31923769 -5 46 C-10.60536418 41.17315863 -13.48756628 36.06151173 -14.421875 28.65625 C-14.73251205 20.71774752 -13.85489568 14.4288573 -9 8 C-6.16668366 5.10035184 -3.19537133 2.49225041 0 0 Z " fill="#4372B4" transform="translate(142,723)"/>
<path d="M0 0 C0.33 0 0.66 0 1 0 C1.125 6.75 1.125 6.75 0 9 C-0.37121937 11.93785331 -0.70337287 14.86708529 -1 17.8125 C-1.16456056 19.42339362 -1.33117292 21.03407918 -1.5 22.64453125 C-1.5721875 23.35971924 -1.644375 24.07490723 -1.71875 24.81176758 C-2.02901559 27.2257524 -2.52268429 29.61342146 -3 32 C-19.17 32 -35.34 32 -52 32 C-52 31.67 -52 31.34 -52 31 C-36.16 31 -20.32 31 -4 31 C-4 27.7 -4 24.4 -4 21 C-2.7 5.4 -2.7 5.4 0 0 Z " fill="#509FE2" transform="translate(855,782)"/>
<path d="M0 0 C6.75 0.875 6.75 0.875 9 2 C11.21536729 2.12095041 13.43434004 2.17749172 15.65283203 2.20532227 C16.33587402 2.21522186 17.01891602 2.22512146 17.72265625 2.23532104 C19.98433953 2.26695309 22.24604382 2.29170011 24.5078125 2.31640625 C26.07437695 2.33697431 27.64093583 2.35797075 29.20748901 2.37937927 C33.33383682 2.43461522 37.46023483 2.48401775 41.58666992 2.53222656 C45.79610674 2.58243048 50.0054705 2.63812233 54.21484375 2.69335938 C62.47650076 2.80095958 70.73821882 2.90240039 79 3 C79 3.33 79 3.66 79 4 C69.58564374 4.06959064 60.17137638 4.1228572 50.75681877 4.15543652 C46.3849871 4.17107503 42.01333176 4.19228001 37.64160156 4.22631836 C33.42056679 4.25897675 29.19970135 4.27686667 24.97854996 4.28463173 C23.37023377 4.29016363 21.76192658 4.30096615 20.15368271 4.31719017 C17.89636141 4.33905107 15.63973479 4.34196339 13.38232422 4.34057617 C12.09881073 4.34723801 10.81529724 4.35389984 9.4928894 4.36076355 C5.70842437 3.96988457 3.26606606 2.90245354 0 1 C0 0.67 0 0.34 0 0 Z " fill="#2159A7" transform="translate(226,661)"/>
<path d="M0 0 C1.13674891 3.41024674 0.69586793 5.52066036 0 9 C-0.74974603 15.99762964 0.44299972 21.89251325 4 28 C6.47110939 30.90968415 9.12026754 33.4977082 12 36 C8.42259043 36 8.03053015 35.48655634 5.5625 33.0625 C-1.97567569 24.99729085 -2.55613303 17.3248606 -2.3359375 6.6953125 C-2 3 -2 3 0 0 Z " fill="#376AB0" transform="translate(214,624)"/>
<path d="M0 0 C0.66 0.33 1.32 0.66 2 1 C-3.94 6.94 -9.88 12.88 -16 19 C-16.66 18.67 -17.32 18.34 -18 18 C-12.37361021 11.50903494 -6.55902307 5.55113536 0 0 Z " fill="#2590F1" transform="translate(687,705)"/>
<path d="M0 0 C0.66 0.33 1.32 0.66 2 1 C0.92492371 2.29854721 -0.16043736 3.58858361 -1.25 4.875 C-1.85328125 5.59429688 -2.4565625 6.31359375 -3.078125 7.0546875 C-4.98529115 8.98511177 -6.58035803 9.85169534 -9 11 C-10.26804566 13.0335948 -10.26804566 13.0335948 -11 15 C-11 11.08127255 -9.42657671 8.91608786 -7 6 C-4.75676763 3.88165851 -2.41792922 1.91532595 0 0 Z " fill="#3B68AC" transform="translate(142,723)"/>
<path d="M0 0 C0.66 0.33 1.32 0.66 2 1 C0.92492371 2.29854721 -0.16043736 3.58858361 -1.25 4.875 C-1.85328125 5.59429688 -2.4565625 6.31359375 -3.078125 7.0546875 C-4.97087634 8.97052118 -6.53657727 9.96449045 -9 11 C-9 11.66 -9 12.32 -9 13 C-9.66 13 -10.32 13 -11 13 C-9.63422544 8.71506993 -7.79318655 6.56854295 -4.375 3.6875 C-3.55773437 2.99011719 -2.74046875 2.29273438 -1.8984375 1.57421875 C-0.95871094 0.79498047 -0.95871094 0.79498047 0 0 Z " fill="#3461A8" transform="translate(86,835)"/>
<path d="M0 0 C0.66 0.33 1.32 0.66 2 1 C-1.3 4.63 -4.6 8.26 -8 12 C-8.99 11.67 -9.98 11.34 -11 11 C-9.92173635 9.72486237 -8.83714481 8.45507431 -7.75 7.1875 C-7.14671875 6.47980469 -6.5434375 5.77210938 -5.921875 5.04296875 C-4.07629602 3.08110329 -2.20054668 1.54330375 0 0 Z " fill="#3762A9" transform="translate(226,611)"/>
<path d="M0 0 C0.66 0.33 1.32 0.66 2 1 C0.76110404 2.48847937 -0.4915672 3.96550105 -1.75 5.4375 C-2.79414063 6.67306641 -2.79414063 6.67306641 -3.859375 7.93359375 C-6.01343015 10.01296451 -7.08310781 10.63867326 -10 11 C-7.17477391 6.32751069 -4.32239956 3.34003602 0 0 Z " fill="#3D69AD" transform="translate(30,723)"/>
<path d="M0 0 C0.33 0.66 0.66 1.32 1 2 C-0.59296374 4.17575536 -2.1982258 6.34015051 -3.8125 8.5 C-4.26431641 9.12003906 -4.71613281 9.74007812 -5.18164062 10.37890625 C-6.38335146 11.97533962 -7.68653633 13.49417079 -9 15 C-9.99 15 -10.98 15 -12 15 C-11.30132813 14.16855469 -10.60265625 13.33710937 -9.8828125 12.48046875 C-8.96346318 11.38287824 -8.04419668 10.28521835 -7.125 9.1875 C-6.66480469 8.64029297 -6.20460938 8.09308594 -5.73046875 7.52929688 C-3.68242038 5.08054339 -1.77281117 2.65921675 0 0 Z " fill="#2FB2ED" transform="translate(1406,698)"/>
<path d="M0 0 C0.33 0 0.66 0 1 0 C1.40214229 6.16618181 -0.03181664 11.17745757 -2 17 C-2.33 17 -2.66 17 -3 17 C-2.88506243 15.10353002 -2.75760358 13.20781668 -2.625 11.3125 C-2.55539062 10.25675781 -2.48578125 9.20101562 -2.4140625 8.11328125 C-2.01239911 5.09322731 -1.25930981 2.75921946 0 0 Z " fill="#2B9AF2" transform="translate(855,782)"/>
<path d="M0 0 C4.86896303 0.59619955 9.32790951 1.56976822 14 3 C14 3.33 14 3.66 14 4 C8.32723489 4.29341888 5.00932754 4.00559652 0 1 C0 0.67 0 0.34 0 0 Z " fill="#4071B4" transform="translate(226,661)"/>
<path d="M0 0 C0.66 0.33 1.32 0.66 2 1 C-0.71182212 3.60334924 -1.89133813 3.99456691 -5.75 4.1875 C-6.8225 4.125625 -7.895 4.06375 -9 4 C-6.06195683 2.47657021 -3.13439441 1.07229283 0 0 Z " fill="#4171B3" transform="translate(310,717)"/>
</svg>
